<svg width="24" height="24" viewBox="0 0 24 24" fill="none" xmlns="http://www.w3.org/2000/svg">
<path d="M22.001 8.50002C22.0002 7.14651 21.5769 5.827 20.7902 4.72562C20.0034 3.62424 18.8925 2.79592 17.6124 2.35626C16.3323 1.9166 14.9468 1.88752 13.6494 2.27309C12.352 2.65865 11.2073 3.43962 10.375 4.50702C12.828 4.60367 15.1483 5.64611 16.8496 7.41583C18.5509 9.18555 19.5011 11.5452 19.501 14C19.501 14.11 19.499 14.22 19.495 14.33L19.828 14.418C20.0483 14.477 20.2802 14.4769 20.5005 14.4179C20.7207 14.3588 20.9216 14.2429 21.0829 14.0817C21.2442 13.9205 21.3603 13.7197 21.4194 13.4995C21.4786 13.2793 21.4788 13.0473 21.42 12.827L21.292 12.351C21.189 11.966 21.252 11.56 21.417 11.198C21.8026 10.3509 22.0017 9.4308 22.001 8.50002Z" fill="white"/>
<path fill-rule="evenodd" clip-rule="evenodd" d="M18 14C18.0004 15.3518 17.6582 16.6817 17.0054 17.8654C16.3526 19.0491 15.4105 20.0482 14.2671 20.7692C13.1236 21.4902 11.8161 21.9097 10.4666 21.9886C9.1171 22.0674 7.76963 21.803 6.55 21.22C6.19441 21.041 5.78657 20.9949 5.4 21.09L4.173 21.419C3.95267 21.4778 3.72075 21.4776 3.50053 21.4185C3.2803 21.3593 3.07951 21.2432 2.91831 21.0819C2.75712 20.9206 2.64119 20.7198 2.58215 20.4995C2.52312 20.2792 2.52307 20.0473 2.582 19.827L2.91 18.6C3.00512 18.2135 2.95902 17.8056 2.78 17.45C2.26297 16.3666 1.9964 15.1807 2.00004 13.9803C2.00367 12.7798 2.27743 11.5956 2.80101 10.5153C3.32459 9.43506 4.08457 8.48648 5.02462 7.73988C5.96468 6.99329 7.0607 6.46783 8.23146 6.20245C9.40222 5.93707 10.6177 5.93857 11.7878 6.20684C12.9579 6.47511 14.0526 7.00327 14.9908 7.75219C15.929 8.5011 16.6867 9.45155 17.2076 10.5331C17.7285 11.6147 17.9993 12.7996 18 14ZM6.5 15C6.76521 15 7.01957 14.8947 7.20711 14.7071C7.39464 14.5196 7.5 14.2652 7.5 14C7.5 13.7348 7.39464 13.4805 7.20711 13.2929C7.01957 13.1054 6.76521 13 6.5 13C6.23478 13 5.98043 13.1054 5.79289 13.2929C5.60536 13.4805 5.5 13.7348 5.5 14C5.5 14.2652 5.60536 14.5196 5.79289 14.7071C5.98043 14.8947 6.23478 15 6.5 15ZM10 15C10.2652 15 10.5196 14.8947 10.7071 14.7071C10.8946 14.5196 11 14.2652 11 14C11 13.7348 10.8946 13.4805 10.7071 13.2929C10.5196 13.1054 10.2652 13 10 13C9.73478 13 9.48043 13.1054 9.29289 13.2929C9.10536 13.4805 9 13.7348 9 14C9 14.2652 9.10536 14.5196 9.29289 14.7071C9.48043 14.8947 9.73478 15 10 15ZM13.5 15C13.7652 15 14.0196 14.8947 14.2071 14.7071C14.3946 14.5196 14.5 14.2652 14.5 14C14.5 13.7348 14.3946 13.4805 14.2071 13.2929C14.0196 13.1054 13.7652 13 13.5 13C13.2348 13 12.9804 13.1054 12.7929 13.2929C12.6054 13.4805 12.5 13.7348 12.5 14C12.5 14.2652 12.6054 14.5196 12.7929 14.7071C12.9804 14.8947 13.2348 15 13.5 15Z" fill="white"/>
</svg>
