<svg width="50" height="50" viewBox="0 0 50 50" fill="none" xmlns="http://www.w3.org/2000/svg">
<path d="M42.6835 24.1806C42.6867 24.1806 42.6891 24.1806 42.6923 24.1806C42.9177 24.1806 43.1325 24.0861 43.2852 23.9206C43.4403 23.7525 43.517 23.5272 43.4968 23.2994C42.6859 14.3796 35.6243 7.31518 26.7042 6.5026C26.4781 6.48483 26.2503 6.55834 26.0823 6.71423C25.9143 6.86931 25.8206 7.08821 25.823 7.3168C25.9636 19.1711 27.5272 24.0151 42.6835 24.1806ZM42.6835 25.8187C27.5272 25.9843 25.9644 30.8283 25.8238 42.6826C25.8214 42.9112 25.9151 43.1301 26.0831 43.2851C26.2333 43.4233 26.4296 43.5 26.6315 43.5C26.6557 43.5 26.6808 43.4992 26.705 43.4968C35.6251 42.6842 42.6867 35.6206 43.4968 26.7C43.517 26.4722 43.4411 26.2468 43.2852 26.0788C43.1293 25.9108 42.912 25.8276 42.6835 25.8187ZM23.2417 6.50664C14.3498 7.34265 7.31086 14.4055 6.50398 23.301C6.48379 23.5288 6.55971 23.7542 6.7156 23.9222C6.86825 24.0878 7.0839 24.1815 7.30844 24.1815C7.31167 24.1815 7.3149 24.1815 7.31813 24.1815C22.4243 24.0078 23.9839 19.1662 24.1261 7.32003C24.1285 7.09144 24.034 6.87174 23.866 6.71665C23.6964 6.56157 23.4694 6.48564 23.2417 6.50664ZM7.31732 25.8179C7.06613 25.7897 6.86906 25.9092 6.71479 26.0772C6.55971 26.2452 6.48298 26.4706 6.50318 26.6984C7.31005 35.5939 14.3498 42.6567 23.2417 43.4927C23.2667 43.4952 23.2925 43.496 23.3176 43.496C23.5195 43.496 23.715 43.42 23.8652 43.2819C24.0332 43.1268 24.1277 42.9071 24.1253 42.6785C23.9831 30.8331 22.4243 25.9916 7.31732 25.8179Z" fill="black"/>
</svg>
