<svg width="175" height="63" viewBox="0 0 175 63" fill="none" xmlns="http://www.w3.org/2000/svg">
<g clip-path="url(#clip0_3_12769)">
<mask id="mask0_3_12769" style="mask-type:luminance" maskUnits="userSpaceOnUse" x="0" y="0" width="175" height="63">
<path d="M175 0H0V63H175V0Z" fill="white"/>
</mask>
<g mask="url(#mask0_3_12769)">
<path d="M4.27953 50.7988H7.03953C7.63953 50.7988 8.08953 51.0475 8.38953 51.5449C8.68953 52.0422 8.83953 52.7386 8.83953 53.6504C8.83953 54.5954 8.67953 55.3249 8.34953 55.8388C8.01953 56.3694 7.51953 56.6346 6.84953 56.6346H5.93953V60.083H4.26953V50.7988H4.27953ZM5.94953 54.7612H6.35953C6.67953 54.7612 6.90953 54.6617 7.02953 54.4794C7.15953 54.2804 7.21953 54.0483 7.21953 53.7499C7.21953 53.4515 7.15953 53.2194 7.04953 53.0038C6.93953 52.8049 6.72953 52.7054 6.41953 52.7054H5.94953V54.7612Z" fill="#CD602C"/>
<path d="M9.71094 50.7988H14.1709V52.7883H11.3809V54.2638H13.9709V56.1538H11.3809V57.9775H14.2509V60.083H9.71094V50.7988Z" fill="#CD602C"/>
<path d="M15.1211 50.7988H17.3111L18.1511 56.4522L18.9911 50.7988H21.1811V60.083H19.8111V53.0038L18.7711 60.083H17.5311L16.4911 53.0038V60.083H15.1211V50.7988Z" fill="#CD602C"/>
<path d="M22.0312 55.4607C22.0312 53.9521 22.2712 52.775 22.7612 51.9294C23.2512 51.0839 23.9313 50.6694 24.8013 50.6694C25.6913 50.6694 26.3813 51.0839 26.8713 51.9129C27.3513 52.7418 27.6012 53.9023 27.6012 55.3944C27.6012 56.4721 27.4913 57.3673 27.2812 58.0636C27.0714 58.76 26.7613 59.2905 26.3613 59.6884C25.9613 60.0697 25.4613 60.2686 24.8713 60.2686C24.2613 60.2686 23.7613 60.1029 23.3613 59.7713C22.9613 59.4397 22.6413 58.9092 22.3913 58.1963C22.1513 57.4336 22.0312 56.5384 22.0312 55.4607ZM23.6913 55.4607C23.6913 56.4057 23.7914 57.0689 23.9914 57.4834C24.1914 57.8979 24.4713 58.0968 24.8113 58.0968C25.1714 58.0968 25.4413 57.8979 25.6413 57.5C25.8413 57.1021 25.9313 56.3726 25.9313 55.3447C25.9313 54.466 25.8313 53.836 25.6213 53.4215C25.4213 53.0236 25.1413 52.8247 24.7913 52.8247C24.4513 52.8247 24.1913 53.0236 23.9813 53.4381C23.7913 53.8526 23.6913 54.5157 23.6913 55.4607Z" fill="#CD602C"/>
<path d="M28.5078 50.7988H30.1678V54.0483H31.9878V50.7988H33.6578V60.083H31.9878V56.3362H30.1678V60.083H28.5078V50.7988Z" fill="#CD602C"/>
<path d="M34.3789 50.7988H39.4389V53.1033H37.7389V60.083H36.0789V53.1033H34.3789V50.7988Z" fill="#CD602C"/>
<path d="M47.5892 60.0849H45.7192L45.0692 57.6975C44.9192 57.1339 44.7992 56.7691 44.7092 56.6365C44.6292 56.4873 44.5092 56.421 44.3592 56.421V60.0849H42.6992V50.8173H44.3592V54.3817C44.4992 54.3652 44.6192 54.2823 44.6992 54.1165C44.7792 53.9507 44.9092 53.4699 45.0792 52.6907C45.2092 52.1104 45.3292 51.696 45.4592 51.4473C45.5892 51.1986 45.7892 51.0162 46.0792 50.9002C46.3692 50.7841 46.8192 50.7344 47.4292 50.7344V52.6907H47.3492C47.0692 52.6907 46.8592 52.7902 46.7192 52.9725C46.5792 53.1549 46.4692 53.4533 46.3792 53.8678C46.2892 54.2823 46.1992 54.5973 46.0992 54.7962C45.9992 54.9952 45.8592 55.161 45.6792 55.2936C45.9192 55.4262 46.1292 55.6583 46.3092 55.9899C46.4892 56.3215 46.6792 56.8354 46.8792 57.5317L47.5892 60.0849Z" fill="#CD602C"/>
<path d="M48.1897 50.812H51.2997C51.8197 50.812 52.2197 51.0275 52.4897 51.4752C52.7697 51.9228 52.9097 52.4699 52.9097 53.1165C52.9097 53.6636 52.8097 54.1278 52.6097 54.5257C52.4797 54.791 52.2897 54.9899 52.0297 55.1391C52.4197 55.3049 52.6997 55.5702 52.8797 55.9681C53.0597 56.366 53.1497 56.8467 53.1497 57.4436C53.1497 57.9244 53.0797 58.3554 52.9597 58.7367C52.8297 59.1181 52.6497 59.4165 52.4297 59.6486C52.2897 59.7812 52.0797 59.8807 51.7997 59.947C51.4297 60.0299 51.1797 60.0796 51.0497 60.0796H48.1797V50.812H48.1897ZM49.8597 54.4428H50.5797C50.8397 54.4428 51.0197 54.3599 51.1197 54.2107C51.2197 54.0615 51.2697 53.8294 51.2697 53.5475C51.2697 53.2823 51.2197 53.0667 51.1197 52.9175C51.0197 52.7683 50.8397 52.6854 50.5897 52.6854H49.8597V54.4428ZM49.8597 58.0902H50.7097C50.9997 58.0902 51.1997 58.0073 51.3097 57.8249C51.4297 57.6425 51.4897 57.4104 51.4897 57.112C51.4897 56.8302 51.4297 56.6146 51.3097 56.4489C51.1897 56.2831 50.9897 56.2002 50.6997 56.2002H49.8597V58.0902Z" fill="#CD602C"/>
<path d="M57.3422 58.5544H55.4522L55.1922 60.0796H53.4922L55.5122 50.812H57.3222L59.342 60.0796H57.6022L57.3422 58.5544ZM56.9922 56.5483L56.4022 53.216L55.8122 56.5483H56.9922Z" fill="#CD602C"/>
<path d="M59.8694 50.7988H62.6294C63.2294 50.7988 63.6794 51.0475 63.9794 51.5449C64.2794 52.0422 64.4294 52.7386 64.4294 53.6504C64.4294 54.5954 64.2694 55.3249 63.9394 55.8388C63.6094 56.3694 63.1094 56.6346 62.4394 56.6346H61.5294V60.083H59.8594V50.7988H59.8694ZM61.5394 54.7612H61.9494C62.2694 54.7612 62.4894 54.6617 62.6194 54.4794C62.7494 54.2804 62.8094 54.0483 62.8094 53.7499C62.8094 53.4515 62.7494 53.2194 62.6394 53.0038C62.5294 52.8049 62.3194 52.7054 62.0094 52.7054H61.5394V54.7612Z" fill="#CD602C"/>
<path d="M64.9219 50.7988H69.9819V53.1033H68.2819V60.083H66.6219V53.1033H64.9219V50.7988Z" fill="#CD602C"/>
<path d="M75.8805 50.7988V60.083H74.3205V54.9933L72.3005 60.083H70.7305V50.7988H72.3005V55.9383L74.3305 50.7988H75.8805Z" fill="#CD602C"/>
<path d="M76.9786 50.7988H79.7386C80.3386 50.7988 80.7886 51.0475 81.0886 51.5449C81.3886 52.0422 81.5386 52.7386 81.5386 53.6504C81.5386 54.5954 81.3787 55.3249 81.0487 55.8388C80.7187 56.3694 80.2187 56.6346 79.5487 56.6346H78.6386V60.083H76.9688V50.7988H76.9786ZM78.6488 54.7612H79.0586C79.3786 54.7612 79.5986 54.6617 79.7286 54.4794C79.8586 54.2804 79.9186 54.0483 79.9186 53.7499C79.9186 53.4515 79.8586 53.2194 79.7486 53.0038C79.6386 52.8049 79.4287 52.7054 79.1187 52.7054H78.6488V54.7612Z" fill="#CD602C"/>
<path d="M90.0797 50.7988V60.083H88.5097V54.9933L86.4997 60.083H84.9297V50.7988H86.4997V55.9383L88.5197 50.7988H90.0797Z" fill="#CD602C"/>
<path d="M99.3387 62.1057H97.9986V60.083H94.5587V62.1057H93.2188V57.9444H93.7687C94.0787 56.4522 94.2387 54.7612 94.2387 52.8712V50.7988H98.7486V57.9278H99.3287V62.1057H99.3387ZM97.0987 57.9444V53.0867H95.7587V53.2028C95.7587 54.4794 95.6287 56.0709 95.3787 57.9444H97.0987Z" fill="#CD602C"/>
<path d="M99.7812 55.4607C99.7812 53.9521 100.021 52.775 100.511 51.9294C101.001 51.0839 101.681 50.6694 102.551 50.6694C103.441 50.6694 104.131 51.0839 104.621 51.9129C105.101 52.7418 105.351 53.9023 105.351 55.3944C105.351 56.4721 105.241 57.3673 105.031 58.0636C104.821 58.76 104.511 59.2905 104.111 59.6884C103.711 60.0697 103.211 60.2686 102.621 60.2686C102.011 60.2686 101.511 60.1029 101.111 59.7713C100.711 59.4397 100.391 58.9092 100.141 58.1963C99.9114 57.4336 99.7812 56.5384 99.7812 55.4607ZM101.451 55.4607C101.451 56.4057 101.551 57.0689 101.751 57.4834C101.951 57.8979 102.231 58.0968 102.571 58.0968C102.931 58.0968 103.201 57.8979 103.401 57.5C103.601 57.1021 103.691 56.3726 103.691 55.3447C103.691 54.466 103.591 53.836 103.381 53.4215C103.181 53.0236 102.901 52.8247 102.551 52.8247C102.211 52.8247 101.951 53.0236 101.741 53.4381C101.551 53.8526 101.451 54.5157 101.451 55.4607Z" fill="#CD602C"/>
<path d="M106.242 50.7988H108.422L109.272 56.4522L110.102 50.7988H112.292V60.083H110.932V53.0038L109.882 60.083H108.652L107.602 53.0038V60.083H106.242V50.7988Z" fill="#CD602C"/>
<path d="M113.141 55.4607C113.141 53.9521 113.381 52.775 113.871 51.9294C114.361 51.0839 115.041 50.6694 115.911 50.6694C116.801 50.6694 117.491 51.0839 117.981 51.9129C118.461 52.7418 118.711 53.9023 118.711 55.3944C118.711 56.4721 118.601 57.3673 118.391 58.0636C118.181 58.76 117.871 59.2905 117.471 59.6884C117.071 60.0697 116.571 60.2686 115.981 60.2686C115.371 60.2686 114.871 60.1029 114.471 59.7713C114.071 59.4397 113.751 58.9092 113.501 58.1963C113.261 57.4336 113.141 56.5384 113.141 55.4607ZM114.801 55.4607C114.801 56.4057 114.901 57.0689 115.101 57.4834C115.301 57.8979 115.581 58.0968 115.921 58.0968C116.281 58.0968 116.551 57.8979 116.751 57.5C116.951 57.1021 117.041 56.3726 117.041 55.3447C117.041 54.466 116.941 53.836 116.731 53.4215C116.531 53.0236 116.251 52.8247 115.901 52.8247C115.561 52.8247 115.301 53.0236 115.091 53.4381C114.901 53.8526 114.801 54.5157 114.801 55.4607Z" fill="#CD602C"/>
<path d="M119.609 50.812H122.719C123.239 50.812 123.639 51.0275 123.909 51.4752C124.189 51.9228 124.329 52.4699 124.329 53.1165C124.329 53.6636 124.229 54.1278 124.029 54.5257C123.899 54.791 123.709 54.9899 123.449 55.1391C123.839 55.3049 124.119 55.5702 124.299 55.9681C124.479 56.366 124.569 56.8467 124.569 57.4436C124.569 57.9244 124.499 58.3554 124.379 58.7367C124.249 59.1181 124.069 59.4165 123.849 59.6486C123.709 59.7812 123.499 59.8807 123.219 59.947C122.849 60.0299 122.599 60.0796 122.479 60.0796H119.609V50.812ZM121.289 54.4428H122.009C122.269 54.4428 122.449 54.3599 122.549 54.2107C122.649 54.0615 122.699 53.8294 122.699 53.5475C122.699 53.2823 122.649 53.0667 122.549 52.9175C122.449 52.7683 122.269 52.6854 122.019 52.6854H121.289V54.4428ZM121.289 58.0902H122.139C122.429 58.0902 122.629 58.0073 122.739 57.8249C122.859 57.6425 122.919 57.4104 122.919 57.112C122.919 56.8302 122.859 56.6146 122.739 56.4489C122.619 56.2831 122.419 56.2002 122.129 56.2002H121.289V58.0902Z" fill="#CD602C"/>
<path d="M133.119 60.0796H131.459V53.0833H129.629V60.0796H127.969V50.812H133.119V60.0796Z" fill="#CD602C"/>
<path d="M134.02 55.4607C134.02 53.9521 134.26 52.775 134.75 51.9294C135.24 51.0839 135.92 50.6694 136.79 50.6694C137.68 50.6694 138.37 51.0839 138.86 51.9129C139.34 52.7418 139.59 53.9023 139.59 55.3944C139.59 56.4721 139.48 57.3673 139.27 58.0636C139.06 58.76 138.75 59.2905 138.35 59.6884C137.95 60.0697 137.45 60.2686 136.86 60.2686C136.25 60.2686 135.75 60.1029 135.35 59.7713C134.95 59.4397 134.63 58.9092 134.38 58.1963C134.14 57.4336 134.02 56.5384 134.02 55.4607ZM135.68 55.4607C135.68 56.4057 135.78 57.0689 135.98 57.4834C136.18 57.8979 136.46 58.0968 136.8 58.0968C137.16 58.0968 137.43 57.8979 137.63 57.5C137.83 57.1021 137.92 56.3726 137.92 55.3447C137.92 54.466 137.82 53.836 137.61 53.4215C137.41 53.0236 137.13 52.8247 136.78 52.8247C136.44 52.8247 136.18 53.0236 135.97 53.4381C135.78 53.8526 135.68 54.5157 135.68 55.4607Z" fill="#CD602C"/>
<path d="M146.128 62.1057H144.788V60.083H141.348V62.1057H140.008V57.9444H140.558C140.868 56.4522 141.028 54.7612 141.028 52.8712V50.7988H145.538V57.9278H146.118V62.1057H146.128ZM143.888 57.9444V53.0867H142.548V53.2028C142.548 54.4794 142.418 56.0709 142.168 57.9444H143.888Z" fill="#CD602C"/>
<path d="M154.179 60.0849H152.309L151.659 57.6975C151.509 57.1339 151.389 56.7691 151.299 56.6365C151.219 56.4873 151.099 56.421 150.949 56.421V60.0849H149.289V50.8173H150.949V54.3817C151.089 54.3652 151.209 54.2823 151.289 54.1165C151.369 53.9507 151.499 53.4699 151.669 52.6907C151.799 52.1104 151.919 51.696 152.049 51.4473C152.179 51.1986 152.379 51.0162 152.669 50.9002C152.959 50.7841 153.409 50.7344 154.019 50.7344V52.6907H153.939C153.659 52.6907 153.449 52.7902 153.309 52.9725C153.169 53.1549 153.059 53.4533 152.969 53.8678C152.879 54.2823 152.789 54.5973 152.689 54.7962C152.589 54.9952 152.449 55.161 152.269 55.2936C152.509 55.4262 152.719 55.6583 152.899 55.9899C153.079 56.3215 153.269 56.8354 153.469 57.5317L154.179 60.0849Z" fill="#CD602C"/>
<path d="M159.72 60.0796H158.06V53.0833H156.76V55.9349C156.76 57.112 156.72 57.9741 156.65 58.5212C156.58 59.0683 156.41 59.4828 156.14 59.7315C155.87 59.9802 155.44 60.1128 154.85 60.1128C154.67 60.1128 154.46 60.0796 154.23 60.0133V58.1399H154.48C154.71 58.1399 154.86 58.057 154.96 57.8912C155.05 57.7254 155.1 57.4104 155.1 56.9462V50.812H159.72V60.0796Z" fill="#CD602C"/>
<path d="M163.128 54.0588C163.278 52.948 163.578 52.1025 164.038 51.5222C164.498 50.942 165.098 50.6436 165.818 50.6436C166.718 50.6436 167.408 51.058 167.888 51.887C168.368 52.7159 168.608 53.8764 168.608 55.3851C168.608 56.9436 168.368 58.1538 167.898 58.9828C167.418 59.8283 166.748 60.2428 165.888 60.2428C164.978 60.2428 164.308 59.878 163.858 59.132C163.418 58.3859 163.148 57.4575 163.078 56.3467H162.488V60.0936H160.828V50.8259H162.488V54.0754H163.128V54.0588ZM165.838 58.0875C166.208 58.0875 166.488 57.8886 166.678 57.4741C166.868 57.0596 166.968 56.3467 166.968 55.3354C166.968 53.6443 166.588 52.7988 165.828 52.7988C165.088 52.7988 164.718 53.6941 164.718 55.468C164.708 57.2088 165.088 58.0875 165.838 58.0875Z" fill="#CD602C"/>
<path d="M174.47 60.083H172.81V56.6346C172.3 57.1154 171.82 57.3641 171.36 57.3641C170.81 57.3641 170.36 57.0822 170.01 56.5186C169.66 55.9549 169.48 55.1922 169.48 54.2141V50.7988H171.14V53.6504C171.14 54.098 171.2 54.4462 171.33 54.6949C171.46 54.9436 171.63 55.0596 171.87 55.0596C172.31 55.0596 172.62 54.8275 172.82 54.3799V50.7988H174.48V60.083H174.47Z" fill="#CD602C"/>
<path d="M26.7308 29.4556C27.2108 26.7698 28.2208 24.7306 29.7508 23.3213C31.2808 21.9121 33.2608 21.2158 35.6908 21.2158C38.6808 21.2158 40.9808 22.2106 42.6008 24.2166C44.2208 26.2227 45.0208 29.0245 45.0208 32.6553C45.0208 36.4353 44.2308 39.3366 42.6308 41.3592C41.0408 43.3819 38.8108 44.3932 35.9308 44.3932C32.9008 44.3932 30.6508 43.4979 29.1708 41.6908C27.6908 39.9003 26.8208 37.6456 26.5608 34.9598H24.5808V44.0119H19.0508V21.5971H24.5808V29.4556H26.7308ZM35.7308 39.1874C36.9608 39.1874 37.8908 38.69 38.5308 37.6953C39.1708 36.7006 39.4908 34.9763 39.4908 32.5392C39.4908 28.4442 38.2308 26.405 35.7008 26.405C33.2308 26.405 31.9908 28.5603 31.9908 32.8542C31.9908 37.0819 33.2408 39.1874 35.7308 39.1874Z" fill="black"/>
<path d="M62.239 27.1087H53.5691V44.0194H48.0391V21.6045H62.239V27.1087Z" fill="black"/>
<path d="M76.6916 34.853L81.5516 36.6933C81.2216 38.4009 80.7116 39.8101 80.0116 40.9541C79.3116 42.098 78.4416 42.9601 77.4016 43.5404C76.3616 44.1206 75.0416 44.4025 73.4316 44.4025C71.4816 44.4025 69.8916 44.0543 68.6516 43.3414C67.4116 42.6285 66.3516 41.3851 65.4516 39.6112C64.5516 37.8372 64.1016 35.5493 64.1016 32.7641C64.1016 29.0504 64.8916 26.2154 66.4716 24.2259C68.0516 22.2364 70.2816 21.2417 73.1716 21.2417C75.4316 21.2417 77.2016 21.8054 78.5016 22.9493C79.7916 24.0933 80.7516 25.8506 81.3816 28.2049L76.4916 29.5643C76.3216 28.8846 76.1416 28.3872 75.9516 28.0722C75.6416 27.5417 75.2616 27.1272 74.8116 26.8454C74.3616 26.5635 73.8616 26.4143 73.3116 26.4143C72.0516 26.4143 71.0916 27.0443 70.4216 28.3043C69.9116 29.2493 69.6616 30.7083 69.6616 32.7143C69.6616 35.2012 69.9616 36.9088 70.5616 37.8206C71.1616 38.7491 72.0116 39.1967 73.1016 39.1967C74.1616 39.1967 74.9616 38.832 75.5016 38.0859C76.0516 37.3399 76.4416 36.2622 76.6916 34.853Z" fill="black"/>
<path d="M82.9805 21.6045H99.8205V27.142H94.1705V44.0194H88.6305V27.142H82.9805V21.6045Z" fill="black"/>
<path d="M119.49 21.6045V44.0194H114.28V31.7178L107.57 44.0194H102.34V21.6045H107.56V34.0057L114.31 21.6045H119.49Z" fill="black"/>
<path d="M139.681 44.0153H134.141V27.1048H129.811V34.0017C129.811 36.8367 129.691 38.909 129.451 40.2519C129.211 41.5782 128.651 42.5564 127.761 43.1864C126.871 43.8164 125.451 44.1148 123.471 44.1148C122.871 44.1148 122.171 44.0319 121.391 43.8661V39.3235H122.221C122.971 39.3235 123.501 39.108 123.811 38.7101C124.121 38.2956 124.281 37.533 124.281 36.4388V21.6172H139.681V44.0153Z" fill="black"/>
<path d="M148.901 30.2423H151.861C154.581 30.2423 156.591 30.8391 157.901 32.0328C159.211 33.2265 159.871 35.0833 159.871 37.6199C159.871 39.6923 159.271 41.2673 158.071 42.3615C156.871 43.4557 155.141 44.0028 152.891 44.0028H143.371V21.6045H148.901V30.2423ZM148.901 39.1949H151.741C153.481 39.1949 154.351 38.4157 154.351 36.8407C154.351 35.4647 153.481 34.7849 151.741 34.7849H148.901V39.1949Z" fill="black"/>
<path d="M80.438 14.4102L80.318 15.1894L53.7478 4.57885L0.38781 28.1542L0.257812 27.3749L37.9778 9.03858V4.56226H40.5978V7.762L53.4378 1.52832L53.5078 1.56147L80.438 14.4102Z" fill="#CD602C"/>
</g>
</g>
<defs>
<clipPath id="clip0_3_12769">
<rect width="175" height="63" fill="white"/>
</clipPath>
</defs>
</svg>
