<svg width="50" height="50" viewBox="0 0 50 50" fill="none" xmlns="http://www.w3.org/2000/svg">
<path d="M37.45 6H11.55C8.48482 6 6 8.48482 6 11.55V37.45C6 40.5152 8.48482 43 11.55 43H37.45C40.5152 43 43 40.5152 43 37.45V11.55C43 8.48482 40.5152 6 37.45 6Z" fill="#37AEE2"/>
<path d="M20.3809 33.7246C19.543 33.7246 19.6191 33.4199 19.3906 32.6582L16.9531 24.6602L35.6152 13.6914" fill="#C8DAEA"/>
<path d="M20.3809 33.7246C20.9141 33.7246 21.2188 33.4199 21.5996 33.1152L25.0273 29.8398L20.7617 27.25" fill="#A9C9DD"/>
<path d="M20.7623 27.2502L31.0455 34.7912C32.1119 35.4767 33.026 35.0959 33.3306 33.7248L37.5201 14.0724C37.901 12.3967 36.8346 11.6349 35.692 12.1682L11.2408 21.6135C9.6412 22.2228 9.6412 23.2131 10.9361 23.5939L17.2584 25.5744L31.731 16.3576C32.4166 15.9767 33.026 16.1291 32.5689 16.6623" fill="#F6FBFE"/>
</svg>
