<svg width="50" height="50" viewBox="0 0 50 50" fill="none" xmlns="http://www.w3.org/2000/svg">
<path d="M43.75 38.5417C43.75 41.4187 41.4187 43.75 38.5417 43.75H11.4583C8.58229 43.75 6.25 41.4187 6.25 38.5417V11.4583C6.25 8.58125 8.58229 6.25 11.4583 6.25H38.5417C41.4187 6.25 43.75 8.58125 43.75 11.4583V38.5417Z" fill="#1976D2"/>
<path d="M37.4344 18.7924C37.4823 18.6351 37.5052 18.4893 37.499 18.359C37.4833 17.982 37.224 17.708 36.6135 17.708H33.8865C33.1979 17.708 32.8802 18.1247 32.6948 18.5424C32.6948 18.5424 30.9948 22.0413 29.0354 24.3486C28.4 25.0163 28.0771 24.9997 27.7333 24.9997C27.549 24.9997 27.0833 24.7768 27.0833 24.1653V18.7643C27.0833 18.0413 26.9031 17.708 26.3208 17.708H21.4781C21.0542 17.708 20.8333 18.0413 20.8333 18.3757C20.8333 19.0705 21.7687 19.2372 21.875 21.184V24.958C21.875 25.8747 21.7156 26.0413 21.3719 26.0413C20.4448 26.0413 18.6198 22.9163 17.3979 18.8205C17.1333 18.0143 16.8687 17.708 16.1802 17.708H13.4271C12.6323 17.708 12.5 18.0976 12.5 18.5143C12.5 19.2653 13.125 23.3257 16.5365 27.9945C19.0104 31.3799 22.2698 33.333 25.1552 33.333C26.9031 33.333 27.0823 32.8882 27.0823 32.1934V29.0976C27.0833 28.2632 27.274 28.1247 27.8302 28.1247C28.2271 28.1247 29.0365 28.3851 30.599 30.208C32.401 32.3101 32.7281 33.333 33.7615 33.333H36.4885C37.1219 33.333 37.4854 33.0674 37.5 32.5518C37.5031 32.4205 37.4844 32.2736 37.4417 32.1101C37.2396 31.5101 36.3125 30.0434 35.1562 28.6455C34.5156 27.8715 33.8833 27.1049 33.5927 26.6882C33.3979 26.4163 33.324 26.2247 33.3333 26.0413C33.3427 25.8486 33.4427 25.6653 33.5927 25.409C33.5656 25.409 37.0906 20.4601 37.4344 18.7924Z" fill="white"/>
</svg>
