<svg width="50" height="50" viewBox="0 0 50 50" fill="none" xmlns="http://www.w3.org/2000/svg">
<path d="M37 7H12C8.68629 7 6 9.68629 6 13V38C6 41.3137 8.68629 44 12 44H37C40.3137 44 43 41.3137 43 38V13C43 9.68629 40.3137 7 37 7Z" fill="#1BD741"/>
<path d="M17.762 37.1137C15.4549 37.7076 13.3719 35.5773 14.0176 33.2841V33.2841C14.2458 32.4735 14.1162 31.6126 13.7654 30.847C12.9965 29.1687 12.5958 27.3386 12.5958 25.4684C12.5958 18.3429 18.3928 12.5459 25.5183 12.5459C32.6438 12.5459 38.4407 18.3429 38.4407 25.4684C38.4407 32.5939 32.6438 38.3909 25.5183 38.3909C23.7306 38.3909 21.9729 38.0224 20.3519 37.3156C19.5953 36.9856 18.7546 36.8582 17.9552 37.064L17.762 37.1137ZM19.0912 34.508C19.3782 34.4341 19.6828 34.4796 19.9356 34.634V34.634C21.6125 35.6577 23.543 36.1988 25.5183 36.1988C31.435 36.1988 36.2486 31.3851 36.2486 25.4684C36.2486 19.5516 31.435 14.738 25.5183 14.738C19.6015 14.738 14.7879 19.5516 14.7879 25.4684C14.7879 27.53 15.3738 29.532 16.4822 31.258V31.258C16.6516 31.5218 16.6999 31.8455 16.615 32.1473L16.534 32.435C16.1661 33.7416 17.3529 34.9555 18.6675 34.6171L19.0912 34.508Z" fill="white"/>
<path d="M21.8877 19.4545L21.0492 19.4087C20.7859 19.3944 20.5275 19.4824 20.3284 19.6553C19.9219 20.0083 19.2719 20.6908 19.0723 21.5801C18.7746 22.9062 19.2347 24.5299 20.4255 26.1537C21.6163 27.7775 23.8354 30.3755 27.7594 31.4851C29.024 31.8426 30.0187 31.6016 30.7861 31.1106C31.394 30.7218 31.813 30.0977 31.964 29.3922L32.0979 28.7669C32.1404 28.5682 32.0395 28.3665 31.8549 28.2814L29.021 26.9752C28.8371 26.8904 28.6189 26.944 28.4952 27.1043L27.3827 28.5466C27.2986 28.6555 27.1548 28.6987 27.0249 28.6531C26.263 28.3853 23.7109 27.3165 22.3106 24.6191C22.2498 24.5021 22.2649 24.3601 22.3511 24.2603L23.4143 23.0303C23.523 22.9047 23.5504 22.7281 23.4851 22.5755L22.2636 19.7176C22.1985 19.5654 22.0528 19.4635 21.8877 19.4545Z" fill="white"/>
</svg>
