<svg width="24" height="24" viewBox="0 0 24 24" fill="none" xmlns="http://www.w3.org/2000/svg">
<path fill-rule="evenodd" clip-rule="evenodd" d="M12 22C7.286 22 4.929 22 3.464 20.535C2 19.072 2 16.714 2 12C2 7.286 2 4.929 3.464 3.464C4.93 2 7.286 2 12 2C16.714 2 19.071 2 20.535 3.464C22 4.93 22 7.286 22 12C22 16.714 22 19.071 20.535 20.535C19.072 22 16.714 22 12 22ZM12 7.75C11.379 7.75 10.875 8.254 10.875 8.875C10.875 9.07391 10.796 9.26468 10.6553 9.40533C10.5147 9.54598 10.3239 9.625 10.125 9.625C9.92609 9.625 9.73532 9.54598 9.59467 9.40533C9.45402 9.26468 9.375 9.07391 9.375 8.875C9.37501 8.44494 9.48069 8.02146 9.68274 7.64182C9.88479 7.26218 10.177 6.93799 10.5337 6.69777C10.8905 6.45754 11.3007 6.30865 11.7285 6.26416C12.1562 6.21968 12.5884 6.28098 12.9869 6.44266C13.3854 6.60435 13.7381 6.86147 14.0139 7.19142C14.2898 7.52137 14.4803 7.91403 14.5688 8.33489C14.6573 8.75575 14.6411 9.19191 14.5215 9.60501C14.4019 10.0181 14.1826 10.3955 13.883 10.704C13.791 10.7987 13.703 10.8877 13.619 10.971C13.4165 11.165 13.2258 11.3711 13.048 11.588C12.828 11.87 12.75 12.077 12.75 12.25V13C12.75 13.1989 12.671 13.3897 12.5303 13.5303C12.3897 13.671 12.1989 13.75 12 13.75C11.8011 13.75 11.6103 13.671 11.4697 13.5303C11.329 13.3897 11.25 13.1989 11.25 13V12.25C11.25 11.595 11.555 11.064 11.864 10.667C12.093 10.373 12.38 10.087 12.614 9.853C12.6847 9.783 12.749 9.71833 12.807 9.659C12.9611 9.5004 13.0651 9.2999 13.1059 9.08255C13.1467 8.8652 13.1225 8.64065 13.0364 8.43696C12.9503 8.23326 12.8061 8.05947 12.6217 7.93729C12.4374 7.81511 12.2211 7.74997 12 7.75ZM12 17C12.2652 17 12.5196 16.8946 12.7071 16.7071C12.8946 16.5196 13 16.2652 13 16C13 15.7348 12.8946 15.4804 12.7071 15.2929C12.5196 15.1054 12.2652 15 12 15C11.7348 15 11.4804 15.1054 11.2929 15.2929C11.1054 15.4804 11 15.7348 11 16C11 16.2652 11.1054 16.5196 11.2929 16.7071C11.4804 16.8946 11.7348 17 12 17Z" fill="white"/>
</svg>
