<svg width="24" height="24" viewBox="0 0 24 24" fill="none" xmlns="http://www.w3.org/2000/svg">
<path d="M19.1839 7.80505L16.2189 4.83805C14.1919 2.80805 13.1789 1.79505 12.0899 2.03505C11.0009 2.27505 10.5089 3.62205 9.52188 6.31505L8.85388 8.13805C8.59088 8.85605 8.45888 9.21505 8.22188 9.49305C8.11593 9.61805 7.99502 9.72955 7.86188 9.82505C7.56588 10.0381 7.19788 10.1391 6.46188 10.3421C4.80188 10.8001 3.97088 11.0291 3.65788 11.5721C3.52257 11.8071 3.45217 12.0739 3.45388 12.3451C3.45788 12.9721 4.06688 13.5811 5.28388 14.8001L6.69988 16.2161L2.22388 20.6961C2.08748 20.8406 2.01281 21.0327 2.01571 21.2314C2.0186 21.4302 2.09884 21.62 2.2394 21.7605C2.37995 21.9011 2.56974 21.9813 2.76849 21.9842C2.96724 21.9871 3.15929 21.9124 3.30388 21.7761L7.77888 17.2961L9.24488 18.7641C10.4709 19.9901 11.0839 20.6041 11.7149 20.6041C11.9799 20.6041 12.2409 20.5361 12.4719 20.4041C13.0199 20.0911 13.2499 19.2551 13.7109 17.5821C13.9129 16.8471 14.0139 16.4801 14.2259 16.1831C14.3192 16.0537 14.4265 15.9364 14.5479 15.8311C14.8229 15.5931 15.1799 15.4591 15.8929 15.1911L17.7369 14.4981C20.4009 13.4981 21.7329 12.9971 21.9669 11.9121C22.2019 10.8261 21.1969 9.81905 19.1839 7.80505Z" fill="white"/>
</svg>
