<svg width="24" height="24" viewBox="0 0 24 24" fill="none" xmlns="http://www.w3.org/2000/svg">
<path d="M15.7285 3.88402C17.1625 2.44402 19.2605 2.41402 20.4215 3.58002C21.5855 4.74802 21.5545 6.86002 20.1185 8.30002L17.6955 10.733C17.559 10.8747 17.4837 11.0642 17.4857 11.2609C17.4877 11.4575 17.5668 11.6455 17.7061 11.7844C17.8453 11.9233 18.0335 12.0019 18.2302 12.0033C18.4269 12.0047 18.6162 11.9288 18.7575 11.792L21.1815 9.35902C23.0925 7.44002 23.3325 4.37702 21.4845 2.52102C19.6345 0.664016 16.5775 0.906016 14.6645 2.82502L9.81846 7.69202C7.90746 9.61102 7.66746 12.674 9.51546 14.529C9.58448 14.6008 9.6671 14.6581 9.75851 14.6976C9.84991 14.7371 9.94827 14.758 10.0478 14.7591C10.1474 14.7602 10.2462 14.7415 10.3385 14.704C10.4307 14.6665 10.5146 14.611 10.5851 14.5407C10.6557 14.4705 10.7116 14.3869 10.7495 14.2948C10.7875 14.2028 10.8067 14.1041 10.8061 14.0045C10.8054 13.9049 10.785 13.8064 10.7459 13.7149C10.7068 13.6233 10.6499 13.5404 10.5785 13.471C9.41446 12.303 9.44646 10.191 10.8815 8.75102L15.7285 3.88402Z" fill="url(#paint0_linear_3_12226)"/>
<path d="M14.4855 9.46998C14.3449 9.32902 14.1541 9.24967 13.955 9.24939C13.7559 9.24911 13.5649 9.32792 13.424 9.46848C13.283 9.60905 13.2036 9.79985 13.2034 9.99892C13.2031 10.198 13.2819 10.389 13.4225 10.53C14.5865 11.698 14.5555 13.809 13.1195 15.25L8.27246 20.116C6.83746 21.556 4.73946 21.586 3.57846 20.42C2.41446 19.252 2.44646 17.14 3.88146 15.7L6.30546 13.267C6.37499 13.1972 6.4301 13.1144 6.46763 13.0233C6.50516 12.9322 6.52438 12.8346 6.5242 12.7361C6.52401 12.6375 6.50442 12.54 6.46655 12.4491C6.42868 12.3581 6.37326 12.2755 6.30346 12.206C6.23366 12.1364 6.15085 12.0813 6.05976 12.0438C5.96866 12.0063 5.87107 11.9871 5.77254 11.9872C5.67402 11.9874 5.5765 12.007 5.48555 12.0449C5.3946 12.0828 5.31199 12.1382 5.24246 12.208L2.81846 14.641C0.907459 16.561 0.667459 19.623 2.51546 21.479C4.36546 23.337 7.42246 23.094 9.33546 21.175L14.1825 16.308C16.0935 14.39 16.3335 11.325 14.4855 9.46998Z" fill="url(#paint1_linear_3_12226)"/>
<defs>
<linearGradient id="paint0_linear_3_12226" x1="8.25" y1="8.0044" x2="22.7499" y2="8.0044" gradientUnits="userSpaceOnUse">
<stop stop-color="#CD602C"/>
<stop offset="1" stop-color="#FFA67B"/>
</linearGradient>
<linearGradient id="paint1_linear_3_12226" x1="1.25" y1="16.0001" x2="15.7509" y2="16.0001" gradientUnits="userSpaceOnUse">
<stop stop-color="#CD602C"/>
<stop offset="1" stop-color="#FFA67B"/>
</linearGradient>
</defs>
</svg>
