<svg width="24" height="24" viewBox="0 0 24 24" fill="none" xmlns="http://www.w3.org/2000/svg">
<path d="M11.401 18.161L18.797 10.765C17.5528 10.2452 16.4227 9.48616 15.471 8.53096C14.5153 7.57901 13.756 6.44861 13.236 5.20396L5.84 12.6C5.263 13.177 4.974 13.466 4.726 13.784C4.43339 14.1594 4.18226 14.5655 3.977 14.995C3.804 15.359 3.675 15.747 3.417 16.521L2.055 20.604C1.99231 20.7909 1.98301 20.9916 2.02814 21.1836C2.07327 21.3755 2.17104 21.5511 2.31047 21.6905C2.44989 21.8299 2.62544 21.9277 2.81738 21.9728C3.00932 22.018 3.21005 22.0087 3.397 21.946L7.48 20.584C8.255 20.326 8.642 20.197 9.006 20.024C9.43733 19.8186 9.841 19.569 10.217 19.275C10.535 19.027 10.824 18.738 11.401 18.161ZM20.849 8.71297C21.5864 7.97553 22.0007 6.97535 22.0007 5.93246C22.0007 4.88958 21.5864 3.8894 20.849 3.15196C20.1116 2.41453 19.1114 2.00024 18.0685 2.00024C17.0256 2.00024 16.0254 2.41453 15.288 3.15196L14.401 4.03896L14.439 4.14997C14.876 5.40074 15.5913 6.53595 16.531 7.46996C17.4929 8.43778 18.6679 9.16721 19.962 9.59997L20.849 8.71297Z" fill="#ADADAD"/>
</svg>
