<svg width="24" height="24" viewBox="0 0 24 24" fill="none" xmlns="http://www.w3.org/2000/svg">
<path fill-rule="evenodd" clip-rule="evenodd" d="M8.8869 3.36299C11.8289 0.545994 16.5869 0.545994 19.5299 3.36299C22.4909 6.19699 22.4909 10.807 19.5299 13.642L11.5819 21.25C9.4919 23.25 6.1159 23.25 4.0259 21.25C3.52648 20.7797 3.12852 20.2123 2.85651 19.5825C2.5845 18.9527 2.44418 18.274 2.44418 17.588C2.44418 16.902 2.5845 16.2233 2.85651 15.5935C3.12852 14.9637 3.52648 14.3963 4.0259 13.926L11.8599 6.42799C12.4638 5.85745 13.2631 5.53958 14.0939 5.53958C14.9247 5.53958 15.724 5.85745 16.3279 6.42799C16.6256 6.70846 16.8628 7.04684 17.0249 7.42233C17.187 7.79782 17.2706 8.2025 17.2706 8.61149C17.2706 9.02049 17.187 9.42517 17.0249 9.80066C16.8628 10.1761 16.6256 10.5145 16.3279 10.795L8.4379 18.349C8.36673 18.4172 8.28282 18.4706 8.19098 18.5063C8.09914 18.5421 8.00116 18.5594 7.90264 18.5572C7.80412 18.5551 7.70698 18.5336 7.61677 18.4939C7.52657 18.4542 7.44506 18.3972 7.3769 18.326C7.30875 18.2548 7.25528 18.1709 7.21955 18.0791C7.18382 17.9872 7.16653 17.8893 7.16866 17.7907C7.1708 17.6922 7.19232 17.5951 7.23199 17.5049C7.27167 17.4147 7.32873 17.3331 7.3999 17.265L15.2899 9.71199C15.441 9.57134 15.5614 9.40109 15.6438 9.21184C15.7262 9.02258 15.7687 8.8184 15.7687 8.61199C15.7687 8.40559 15.7262 8.2014 15.6438 8.01215C15.5614 7.8229 15.441 7.65265 15.2899 7.51199C14.9653 7.2088 14.5376 7.04016 14.0934 7.04016C13.6492 7.04016 13.2215 7.2088 12.8969 7.51199L5.0629 15.01C4.70987 15.3402 4.42842 15.7394 4.236 16.1829C4.04358 16.6263 3.94429 17.1046 3.94429 17.588C3.94429 18.0714 4.04358 18.5497 4.236 18.9931C4.42842 19.4366 4.70987 19.8358 5.0629 20.166C6.5729 21.611 9.0349 21.611 10.5449 20.166L18.4929 12.558C20.8369 10.314 20.8369 6.68999 18.4929 4.44599C16.1299 2.18499 12.2869 2.18499 9.9229 4.44599L3.5199 10.576C3.37629 10.7138 3.18382 10.7889 2.98485 10.7847C2.78587 10.7806 2.59668 10.6976 2.4589 10.554C2.32112 10.4104 2.24604 10.2179 2.25016 10.0189C2.25429 9.81996 2.33729 9.63077 2.4809 9.49299L8.8869 3.36299Z" fill="url(#paint0_linear_3_12350)"/>
<defs>
<linearGradient id="paint0_linear_3_12350" x1="2.25" y1="12.0001" x2="21.7507" y2="12.0001" gradientUnits="userSpaceOnUse">
<stop stop-color="#CD602C"/>
<stop offset="1" stop-color="#FFA67B"/>
</linearGradient>
</defs>
</svg>
