<svg width="24" height="24" viewBox="0 0 24 24" fill="none" xmlns="http://www.w3.org/2000/svg">
<path d="M22 14V12C22 11.161 22 10.415 21.987 9.75H2.013C2 10.415 2 11.161 2 12V14C2 17.771 2 19.657 3.172 20.828C4.344 21.999 6.229 22 10 22H14C17.771 22 19.657 22 20.828 20.828C21.999 19.656 22 17.771 22 14ZM7.75 2.5C7.75 2.30109 7.67098 2.11032 7.53033 1.96967C7.38968 1.82902 7.19891 1.75 7 1.75C6.80109 1.75 6.61032 1.82902 6.46967 1.96967C6.32902 2.11032 6.25 2.30109 6.25 2.5V4.08C4.81 4.195 3.866 4.477 3.172 5.172C2.477 5.866 2.195 6.811 2.079 8.25H21.921C21.805 6.81 21.523 5.866 20.828 5.172C20.134 4.477 19.189 4.195 17.75 4.079V2.5C17.75 2.30109 17.671 2.11032 17.5303 1.96967C17.3897 1.82902 17.1989 1.75 17 1.75C16.8011 1.75 16.6103 1.82902 16.4697 1.96967C16.329 2.11032 16.25 2.30109 16.25 2.5V4.013C15.585 4 14.839 4 14 4H10C9.161 4 8.415 4 7.75 4.013V2.5Z" fill="url(#paint0_linear_3_12354)"/>
<defs>
<linearGradient id="paint0_linear_3_12354" x1="2" y1="11.875" x2="22" y2="11.875" gradientUnits="userSpaceOnUse">
<stop stop-color="#CD602C"/>
<stop offset="1" stop-color="#FFA67B"/>
</linearGradient>
</defs>
</svg>
