<svg width="24" height="24" viewBox="0 0 24 24" fill="none" xmlns="http://www.w3.org/2000/svg">
<path d="M2.751 6.167C2.751 5.707 3.096 5.333 3.522 5.333H6.187C6.716 5.318 7.183 4.955 7.363 4.417L7.393 4.322L7.508 3.95C7.578 3.722 7.639 3.523 7.725 3.345C8.063 2.643 8.689 2.156 9.412 2.031C9.596 2 9.789 2 10.012 2H13.49C13.713 2 13.907 2 14.09 2.031C14.813 2.156 15.44 2.643 15.777 3.345C15.863 3.523 15.924 3.722 15.994 3.95L16.109 4.322L16.139 4.417C16.319 4.955 16.879 5.319 17.409 5.333H19.979C20.406 5.333 20.751 5.706 20.751 6.167C20.751 6.628 20.406 7 19.98 7H3.521C3.095 7 2.751 6.627 2.751 6.167ZM11.608 22H12.395C15.102 22 16.455 22 17.336 21.137C18.216 20.273 18.306 18.857 18.486 16.026L18.746 11.945C18.844 10.408 18.893 9.64 18.451 9.153C18.009 8.666 17.264 8.666 15.772 8.666H8.231C6.74 8.666 5.994 8.666 5.552 9.153C5.11 9.64 5.16 10.408 5.257 11.945L5.517 16.025C5.697 18.858 5.787 20.273 6.667 21.137C7.547 22.001 8.901 22 11.608 22Z" fill="#444444"/>
</svg>
