<svg width="24" height="24" viewBox="0 0 24 24" fill="none" xmlns="http://www.w3.org/2000/svg">
<path fill-rule="evenodd" clip-rule="evenodd" d="M2.07 5.258C2 5.626 2 6.068 2 6.95V14C2 17.771 2 19.657 3.172 20.828C4.344 21.999 6.229 22 10 22H14C17.771 22 19.657 22 20.828 20.828C21.999 19.656 22 17.771 22 14V11.798C22 9.166 22 7.849 21.23 6.994C21.1594 6.9151 21.0846 6.83999 21.006 6.769C20.151 6 18.834 6 16.202 6H15.828C14.675 6 14.098 6 13.56 5.847C13.2648 5.7626 12.9802 5.64449 12.712 5.495C12.224 5.224 11.816 4.815 11 4L10.45 3.45C10.176 3.176 10.04 3.04 9.896 2.92C9.27667 2.40664 8.51694 2.09194 7.716 2.017C7.53 2 7.336 2 6.95 2C6.067 2 5.626 2 5.258 2.07C4.46784 2.21922 3.741 2.60314 3.17231 3.17165C2.60361 3.74017 2.21947 4.46789 2.07 5.258ZM16.283 3C16.648 3 16.831 3 16.985 3.02C18.003 3.16 18.813 3.963 18.999 5C18.8467 4.96582 18.6928 4.93879 18.538 4.919C17.898 4.835 17.09 4.835 16.088 4.835H15.754C14.812 4.835 14.454 4.83 14.129 4.734C13.9398 4.678 13.7578 4.59979 13.587 4.501C13.291 4.331 13.035 4.073 12.369 3.383L12 3H16.283ZM13 9.25C12.8011 9.25 12.6103 9.32902 12.4697 9.46967C12.329 9.61032 12.25 9.80109 12.25 10C12.25 10.1989 12.329 10.3897 12.4697 10.5303C12.6103 10.671 12.8011 10.75 13 10.75H18C18.1989 10.75 18.3897 10.671 18.5303 10.5303C18.671 10.3897 18.75 10.1989 18.75 10C18.75 9.80109 18.671 9.61032 18.5303 9.46967C18.3897 9.32902 18.1989 9.25 18 9.25H13Z" fill="url(#paint0_linear_3_12182)"/>
<defs>
<linearGradient id="paint0_linear_3_12182" x1="2" y1="12" x2="22" y2="12" gradientUnits="userSpaceOnUse">
<stop stop-color="#CD602C"/>
<stop offset="1" stop-color="#FFA67B"/>
</linearGradient>
</defs>
</svg>
