<svg width="24" height="24" viewBox="0 0 24 24" fill="none" xmlns="http://www.w3.org/2000/svg">
<path fill-rule="evenodd" clip-rule="evenodd" d="M3.464 20.536C4.93 22 7.286 22 12 22C16.714 22 19.071 22 20.535 20.535C22 19.072 22 16.714 22 12C22 7.286 22 4.929 20.535 3.464C19.072 2 16.714 2 12 2C7.286 2 4.929 2 3.464 3.464C2 4.93 2 7.286 2 12C2 16.714 2 19.072 3.464 20.536ZM18.75 16C18.75 16.1989 18.671 16.3897 18.5303 16.5303C18.3897 16.671 18.1989 16.75 18 16.75H6C5.80109 16.75 5.61032 16.671 5.46967 16.5303C5.32902 16.3897 5.25 16.1989 5.25 16C5.25 15.8011 5.32902 15.6103 5.46967 15.4697C5.61032 15.329 5.80109 15.25 6 15.25H18C18.1989 15.25 18.3897 15.329 18.5303 15.4697C18.671 15.6103 18.75 15.8011 18.75 16ZM18 12.75C18.1989 12.75 18.3897 12.671 18.5303 12.5303C18.671 12.3897 18.75 12.1989 18.75 12C18.75 11.8011 18.671 11.6103 18.5303 11.4697C18.3897 11.329 18.1989 11.25 18 11.25H6C5.80109 11.25 5.61032 11.329 5.46967 11.4697C5.32902 11.6103 5.25 11.8011 5.25 12C5.25 12.1989 5.32902 12.3897 5.46967 12.5303C5.61032 12.671 5.80109 12.75 6 12.75H18ZM18.75 8C18.75 8.19891 18.671 8.38968 18.5303 8.53033C18.3897 8.67098 18.1989 8.75 18 8.75H6C5.80109 8.75 5.61032 8.67098 5.46967 8.53033C5.32902 8.38968 5.25 8.19891 5.25 8C5.25 7.80109 5.32902 7.61032 5.46967 7.46967C5.61032 7.32902 5.80109 7.25 6 7.25H18C18.1989 7.25 18.3897 7.32902 18.5303 7.46967C18.671 7.61032 18.75 7.80109 18.75 8Z" fill="url(#paint0_linear_3_12186)"/>
<defs>
<linearGradient id="paint0_linear_3_12186" x1="2" y1="12" x2="22" y2="12" gradientUnits="userSpaceOnUse">
<stop stop-color="#CD602C"/>
<stop offset="1" stop-color="#FFA67B"/>
</linearGradient>
</defs>
</svg>
