<svg width="24" height="24" viewBox="0 0 24 24" fill="none" xmlns="http://www.w3.org/2000/svg">
<path fill-rule="evenodd" clip-rule="evenodd" d="M20.536 20.536C22 19.07 22 16.714 22 12C22 11.659 22 11.488 21.985 11.314C21.9111 10.4963 21.5899 9.72053 21.064 9.09C20.9104 8.91505 20.7493 8.74689 20.581 8.586L15.414 3.419C15.2523 3.25154 15.0842 3.09042 14.91 2.936C14.2794 2.41051 13.5036 2.0896 12.686 2.016C12.512 2 12.342 2 12 2C7.286 2 4.929 2 3.464 3.464C2 4.93 2 7.286 2 12C2 16.714 2 19.071 3.464 20.535C4.149 21.22 5.027 21.585 6.25 21.778V20.948C6.25 20.049 6.25 19.3 6.33 18.706C6.414 18.078 6.6 17.511 7.055 17.056C7.511 16.6 8.078 16.414 8.705 16.33C9.3 16.25 10.05 16.25 10.948 16.25H13.052C13.951 16.25 14.7 16.25 15.294 16.33C15.922 16.414 16.489 16.6 16.944 17.056C17.4 17.511 17.586 18.078 17.67 18.706C17.75 19.3 17.75 20.049 17.75 20.948V21.778C18.973 21.584 19.853 21.22 20.536 20.536ZM6.25 8C6.25 7.80109 6.32902 7.61032 6.46967 7.46967C6.61032 7.32902 6.80109 7.25 7 7.25H13C13.1989 7.25 13.3897 7.32902 13.5303 7.46967C13.671 7.61032 13.75 7.80109 13.75 8C13.75 8.19891 13.671 8.38968 13.5303 8.53033C13.3897 8.67098 13.1989 8.75 13 8.75H7C6.80109 8.75 6.61032 8.67098 6.46967 8.53033C6.32902 8.38968 6.25 8.19891 6.25 8Z" fill="white"/>
<path d="M16.183 18.905C16.248 19.388 16.25 20.036 16.25 21V21.931C15.094 22 13.7 22 12 22C10.3 22 8.906 22 7.75 21.931V21C7.75 20.036 7.752 19.388 7.817 18.905C7.879 18.444 7.986 18.246 8.117 18.116C8.248 17.986 8.444 17.879 8.905 17.816C9.388 17.752 10.036 17.75 11 17.75H13C13.964 17.75 14.612 17.752 15.095 17.817C15.556 17.879 15.754 17.986 15.884 18.117C16.014 18.248 16.12 18.444 16.183 18.905Z" fill="white"/>
</svg>
