<svg width="24" height="24" viewBox="0 0 24 24" fill="none" xmlns="http://www.w3.org/2000/svg">
<path d="M18.6372 15.67L20.3532 10.52C21.8532 6.022 22.6032 3.773 21.4152 2.586C20.2272 1.399 17.9792 2.148 13.4802 3.648L8.33121 5.364C4.70121 6.574 2.88621 7.18 2.37121 8.067C2.13062 8.48168 2.00391 8.95258 2.00391 9.432C2.00391 9.91142 2.13062 10.3823 2.37121 10.797C2.88621 11.685 4.70121 12.29 8.33121 13.501C8.78121 13.651 9.28821 13.543 9.62521 13.21L15.1312 7.755C15.2036 7.6764 15.2911 7.6133 15.3886 7.56951C15.4861 7.52573 15.5914 7.50216 15.6982 7.50025C15.805 7.49833 15.9111 7.51811 16.0101 7.55837C16.1091 7.59864 16.1988 7.65856 16.274 7.73452C16.3491 7.81047 16.4081 7.90088 16.4473 8.00027C16.4865 8.09966 16.5051 8.20597 16.502 8.31277C16.499 8.41957 16.4743 8.52464 16.4295 8.62162C16.3846 8.7186 16.3206 8.80548 16.2412 8.877L10.8252 14.243C10.6448 14.4278 10.5191 14.659 10.4619 14.9108C10.4047 15.1626 10.4183 15.4254 10.5012 15.67C11.7112 19.3 12.3172 21.116 13.2042 21.632C13.619 21.8728 14.0901 21.9996 14.5697 21.9996C15.0493 21.9996 15.5204 21.8728 15.9352 21.632C16.8222 21.116 17.4262 19.301 18.6372 15.67Z" fill="url(#paint0_linear_3_12320)"/>
<defs>
<linearGradient id="paint0_linear_3_12320" x1="2.00391" y1="11.9998" x2="22.0016" y2="11.9998" gradientUnits="userSpaceOnUse">
<stop stop-color="#CD602C"/>
<stop offset="1" stop-color="#FFA67B"/>
</linearGradient>
</defs>
</svg>
