<svg width="24" height="24" viewBox="0 0 24 24" fill="none" xmlns="http://www.w3.org/2000/svg">
<path fill-rule="evenodd" clip-rule="evenodd" d="M14 22H10C6.229 22 4.343 22 3.172 20.828C2.001 19.656 2 17.771 2 14V10C2 6.229 2 4.343 3.172 3.172C4.344 2.001 6.239 2 10.03 2C10.636 2 11.121 2 11.53 2.017C11.5167 2.097 11.51 2.17833 11.51 2.261L11.5 5.095C11.5 6.192 11.5 7.162 11.605 7.943C11.719 8.79 11.98 9.637 12.672 10.329C13.362 11.019 14.21 11.281 15.057 11.395C15.838 11.5 16.808 11.5 17.905 11.5H21.957C22 12.034 22 12.69 22 13.563V14C22 17.771 22 19.657 20.828 20.828C19.656 21.999 17.771 22 14 22ZM5.25 14.5C5.25 14.3011 5.32902 14.1103 5.46967 13.9697C5.61032 13.829 5.80109 13.75 6 13.75H14C14.1989 13.75 14.3897 13.829 14.5303 13.9697C14.671 14.1103 14.75 14.3011 14.75 14.5C14.75 14.6989 14.671 14.8897 14.5303 15.0303C14.3897 15.171 14.1989 15.25 14 15.25H6C5.80109 15.25 5.61032 15.171 5.46967 15.0303C5.32902 14.8897 5.25 14.6989 5.25 14.5ZM5.25 18C5.25 17.8011 5.32902 17.6103 5.46967 17.4697C5.61032 17.329 5.80109 17.25 6 17.25H11.5C11.6989 17.25 11.8897 17.329 12.0303 17.4697C12.171 17.6103 12.25 17.8011 12.25 18C12.25 18.1989 12.171 18.3897 12.0303 18.5303C11.8897 18.671 11.6989 18.75 11.5 18.75H6C5.80109 18.75 5.61032 18.671 5.46967 18.5303C5.32902 18.3897 5.25 18.1989 5.25 18Z" fill="url(#paint0_linear_3_12206)"/>
<path d="M19.352 7.61699L15.392 4.05399C14.265 3.03899 13.702 2.53099 13.009 2.26599L13 4.99999C13 7.35699 13 8.53599 13.732 9.26799C14.464 9.99999 15.643 9.99999 18 9.99999H21.58C21.218 9.29599 20.568 8.71199 19.352 7.61699Z" fill="url(#paint1_linear_3_12206)"/>
<defs>
<linearGradient id="paint0_linear_3_12206" x1="2" y1="12" x2="22" y2="12" gradientUnits="userSpaceOnUse">
<stop stop-color="#CD602C"/>
<stop offset="1" stop-color="#FFA67B"/>
</linearGradient>
<linearGradient id="paint1_linear_3_12206" x1="13" y1="6.13299" x2="21.58" y2="6.13299" gradientUnits="userSpaceOnUse">
<stop stop-color="#CD602C"/>
<stop offset="1" stop-color="#FFA67B"/>
</linearGradient>
</defs>
</svg>
