<svg width="24" height="24" viewBox="0 0 24 24" fill="none" xmlns="http://www.w3.org/2000/svg">
<path d="M2 6.5C2 4.379 2 3.318 2.659 2.659C3.318 2 4.379 2 6.5 2C8.621 2 9.682 2 10.341 2.659C11 3.318 11 4.379 11 6.5C11 8.621 11 9.682 10.341 10.341C9.682 11 8.621 11 6.5 11C4.379 11 3.318 11 2.659 10.341C2 9.682 2 8.621 2 6.5ZM13 17.5C13 15.379 13 14.318 13.659 13.659C14.318 13 15.379 13 17.5 13C19.621 13 20.682 13 21.341 13.659C22 14.318 22 15.379 22 17.5C22 19.621 22 20.682 21.341 21.341C20.682 22 19.621 22 17.5 22C15.379 22 14.318 22 13.659 21.341C13 20.682 13 19.621 13 17.5ZM2 17.5C2 15.379 2 14.318 2.659 13.659C3.318 13 4.379 13 6.5 13C8.621 13 9.682 13 10.341 13.659C11 14.318 11 15.379 11 17.5C11 19.621 11 20.682 10.341 21.341C9.682 22 8.621 22 6.5 22C4.379 22 3.318 22 2.659 21.341C2 20.682 2 19.621 2 17.5ZM13 6.5C13 4.379 13 3.318 13.659 2.659C14.318 2 15.379 2 17.5 2C19.621 2 20.682 2 21.341 2.659C22 3.318 22 4.379 22 6.5C22 8.621 22 9.682 21.341 10.341C20.682 11 19.621 11 17.5 11C15.379 11 14.318 11 13.659 10.341C13 9.682 13 8.621 13 6.5Z" fill="url(#paint0_linear_3_12232)"/>
<defs>
<linearGradient id="paint0_linear_3_12232" x1="2" y1="12" x2="22" y2="12" gradientUnits="userSpaceOnUse">
<stop stop-color="#CD602C"/>
<stop offset="1" stop-color="#FFA67B"/>
</linearGradient>
</defs>
</svg>
