<svg width="24" height="24" viewBox="0 0 24 24" fill="none" xmlns="http://www.w3.org/2000/svg">
<path d="M6 21C4.114 21 3.172 21 2.586 20.414C2 19.828 2 18.886 2 17C2 15.114 2 14.172 2.586 13.586C3.172 13 4.114 13 6 13H18C19.886 13 20.828 13 21.414 13.586C22 14.172 22 15.114 22 17C22 18.886 22 19.828 21.414 20.414C20.828 21 19.886 21 18 21H6ZM6 11C4.114 11 3.172 11 2.586 10.414C2 9.828 2 8.886 2 7C2 5.114 2 4.172 2.586 3.586C3.172 3 4.114 3 6 3H18C19.886 3 20.828 3 21.414 3.586C22 4.172 22 5.114 22 7C22 8.886 22 9.828 21.414 10.414C20.828 11 19.886 11 18 11L6 11Z" fill="white"/>
</svg>
